<?xml version="1.0" encoding="UTF-8"?>
<svg version="1.1" xmlns="http://www.w3.org/2000/svg" width="1536" height="1024">
<path d="M0 0 C506.88 0 1013.76 0 1536 0 C1536 337.92 1536 675.84 1536 1024 C1029.12 1024 522.24 1024 0 1024 C0 686.08 0 348.16 0 0 Z " fill="#FDFDFD" transform="translate(0,0)"/>
<path d="M0 0 C2.13376103 0.6769438 4.27191693 1.31789354 6.42382812 1.93408203 C12.39784566 3.66598618 17.99608568 5.74935036 23.61132812 8.43017578 C25.94451795 9.53876321 28.28785873 10.58747992 30.65429688 11.62158203 C35.60965432 13.81860425 40.43827419 16.22107993 45.25195312 18.71142578 C46.04537109 19.10910156 46.83878906 19.50677734 47.65625 19.91650391 C49.4139179 20.82694091 51.14261375 21.79482615 52.84329605 22.80772877 C55.5922476 24.40095621 58.38833107 25.55187782 61.3430748 26.71371746 C67.36616076 29.40130551 72.49145852 32.3753543 76.43945312 37.77392578 C80.00787902 48.13221811 79.01965354 59.82805125 78.76090771 70.63191237 C78.67313696 75.23949503 78.70282704 79.846654 78.71726608 84.45484447 C78.7278714 93.38757068 78.6358238 102.31625424 78.50723951 111.24794326 C78.36288373 121.58589468 78.34732778 131.92143956 78.33154297 142.26062012 C78.2266569 169.53652675 77.94743214 196.81153751 77.68945312 224.08642578 C77.27695313 285.03330078 76.86445312 345.98017578 76.43945312 408.77392578 C-69.42054688 408.77392578 -215.28054688 408.77392578 -365.56054688 408.77392578 C-384.1352287 368.97103616 -393.84326957 330.2634776 -393.81054688 286.27392578 C-393.8099527 285.3861142 -393.80935852 284.49830261 -393.80874634 283.58358765 C-393.7436252 258.14008244 -393.7436252 258.14008244 -391.56054688 253.77392578 C-391.21298025 251.27378268 -390.90445976 248.78150029 -390.62304688 246.27392578 C-389.58797416 237.61423544 -388.28724732 229.3187667 -385.34179688 221.07470703 C-384.29938753 218.00481152 -383.43830096 214.89482919 -382.56054688 211.77392578 C-379.10081078 199.53443479 -375.10895797 187.99944012 -369.77929688 176.43017578 C-368.68006586 174.03441588 -367.61524145 171.62701658 -366.56054688 169.21142578 C-356.0222075 145.56239648 -342.29181025 123.19660888 -325.68554688 103.33251953 C-323.71174295 100.95597252 -321.82321086 98.53143883 -319.93554688 96.08642578 C-311.62519799 85.70263656 -302.50957297 75.76142082 -291.92773438 67.66845703 C-289.26835514 65.54007596 -286.9536459 63.19647833 -284.56054688 60.77392578 C-274.80358121 51.73697716 -264.03411088 44.48749616 -252.88916016 37.28027344 C-250.95891011 36.03162143 -249.03672097 34.77234803 -247.11914062 33.50439453 C-241.45427668 29.80571381 -235.65922629 26.69237173 -229.56054688 23.77392578 C-227.93397835 22.96457043 -226.30899037 22.15203136 -224.68554688 21.33642578 C-223.85925781 20.92521484 -223.03296875 20.51400391 -222.18164062 20.09033203 C-220.35508505 19.17297104 -218.53521833 18.24222171 -216.72070312 17.30126953 C-210.58757317 14.15008187 -204.42630378 11.4407807 -197.95898438 9.04736328 C-195.24663694 8.0310124 -192.57257018 6.96419367 -189.89257812 5.86767578 C-164.8609019 -4.16092055 -137.42179075 -10.0396939 -110.56054688 -12.22607422 C-109.57973145 -12.30849365 -109.57973145 -12.30849365 -108.57910156 -12.39257812 C-72.02325411 -15.37870639 -34.9141972 -11.18046074 0 0 Z " fill="#ACC8FD" transform="translate(1459.560546875,615.22607421875)"/>
<path d="M0 0 C1.63775391 0.02900391 1.63775391 0.02900391 3.30859375 0.05859375 C30.7254756 1.21115057 56.4863158 14.44600158 77 32 C77.80824219 32.68578125 78.61648438 33.3715625 79.44921875 34.078125 C99.04520396 51.18231303 113.57150861 72.80938157 123 97 C123.49628906 98.10988281 123.99257813 99.21976563 124.50390625 100.36328125 C126.03514908 104.08544071 127.08135916 107.72427001 128.0625 111.625 C129.27431436 116.55800298 129.27431436 116.55800298 130.98828125 121.32421875 C141.66287709 149.55625795 136.79255518 185.47872943 130.96923828 214.16821289 C127.3762481 231.92735689 124.63038262 249.10902621 124.625 267.25 C124.62309662 267.93570068 124.62119324 268.62140137 124.61923218 269.32788086 C124.62321065 281.92713474 126.19191993 294.0830031 128.875 306.375 C129.04644531 307.17099609 129.21789062 307.96699219 129.39453125 308.78710938 C131.76753295 319.67347117 134.13287149 330.48371186 138.265625 340.86328125 C139 343 139 343 139 346 C-38.54 346 -216.08 346 -399 346 C-399 279.12640211 -399 279.12640211 -388.1875 265 C-387.66124023 264.30720947 -387.13498047 263.61441895 -386.59277344 262.90063477 C-380.3942377 254.80936571 -373.94867009 247.41740264 -366 241 C-364.72576172 239.96939453 -364.72576172 239.96939453 -363.42578125 238.91796875 C-337.14207574 218.44321316 -307.11242416 208.99549846 -275 202 C-226.54421888 191.39505064 -188.49313212 174.17175938 -160.84375 131.203125 C-155.79643102 123.14143497 -151.18865452 114.82436173 -146.59863281 106.49682617 C-143.67128854 101.18600014 -140.65135423 95.93828426 -137.5703125 90.71484375 C-136.02728389 88.04716991 -134.5706442 85.34644496 -133.125 82.625 C-124.91019821 67.481002 -114.83353499 53.51895269 -103 41 C-102.25363281 40.18917969 -101.50726563 39.37835937 -100.73828125 38.54296875 C-88.70429807 25.91225913 -72.71062817 14.38138873 -56 9 C-54.52061669 8.50064137 -53.04146024 8.00061025 -51.5625 7.5 C-50.04166667 7 -48.52083333 6.5 -47 6 C-46.03090698 5.65231567 -46.03090698 5.65231567 -45.04223633 5.29760742 C-39.59348421 3.38385586 -34.27346825 2.14355887 -28.5625 1.3125 C-27.70068115 1.18584961 -26.8388623 1.05919922 -25.95092773 0.92871094 C-17.26462699 -0.25011579 -8.7435356 -0.32688138 0 0 Z " fill="#A2C3FD" transform="translate(399,678)"/>
<path d="M0 0 C103.95 0 207.9 0 315 0 C318.05820717 12.23282869 317.23857737 25.59172135 317.25 38.125 C317.25167175 39.0954425 317.25334351 40.06588501 317.25506592 41.06573486 C317.25660709 56.0345439 316.56332709 70.63644914 314.37158203 85.46630859 C314.04392632 87.70048136 313.75736385 89.93307425 313.49609375 92.17578125 C312.50078377 100.23689538 310.65564024 108.00915369 308.57080078 115.84326172 C307.98125595 118.07082334 307.40908951 120.30232656 306.83984375 122.53515625 C302.78822773 138.33299864 298.64300776 154.07090012 292 169 C291.3200165 170.60945486 290.64322875 172.22026175 289.96875 173.83203125 C285.65733199 184.10066908 281.14064116 194.18962729 275.99609375 204.06835938 C274.99540517 206.00891037 274.02727798 207.96325946 273.0625 209.921875 C260.90528008 234.20107652 244.14355777 256.1971193 226.27783203 276.54296875 C225.13541369 277.84559631 224.00259273 279.15662642 222.87109375 280.46875 C219.70947886 284.12884845 216.46549135 287.62114593 213 291 C212.47792969 291.53238281 211.95585937 292.06476563 211.41796875 292.61328125 C207.1301566 296.97852568 202.64083128 301.01567656 198 305 C196.97993992 305.89523112 195.96045192 306.79111434 194.94140625 307.6875 C176.47736619 323.84018721 156.66138196 337.50620549 135 349 C134.3498291 349.34772461 133.6996582 349.69544922 133.02978516 350.05371094 C91.82304864 371.93244957 46.64527644 384 0 384 C0 257.28 0 130.56 0 0 Z " fill="#D6E3FD" transform="translate(0,0)"/>
<path d="M0 0 C8.49098683 5.95326708 15.08215353 14.04895108 17.515625 24.26953125 C18.8835493 36.58084994 16.8893131 46.38640853 9.5703125 56.58203125 C2.95240915 64.70820095 -5.30507947 69.90108585 -15.86328125 71.0546875 C-28.72455028 71.35318315 -38.43310951 68.54853663 -48.05078125 59.8984375 C-55.41939284 52.2433572 -58.56469743 43.45167687 -58.609375 32.95703125 C-58.32037471 20.32260231 -54.14385648 11.85785547 -45.265625 2.75390625 C-32.67037818 -7.81329235 -13.53572545 -8.69795691 0 0 Z " fill="#AECAFD" transform="translate(283.109375,360.35546875)"/>
<path d="M0 0 C1.46808105 0.19335938 1.46808105 0.19335938 2.96582031 0.390625 C17.73821727 2.39807246 31.80720568 5.46300102 46 10 C47.46034668 10.45681152 47.46034668 10.45681152 48.95019531 10.92285156 C62.37808262 15.13863349 75.28386993 19.96304936 88 26 C87.67 26.66 87.34 27.32 87 28 C86.28569824 27.72325439 85.57139648 27.44650879 84.83544922 27.16137695 C25.18612278 4.07333011 -40.49688903 -11.9989818 -102.02929688 15.10595703 C-112.42847017 19.82371875 -121.27450426 25.72479101 -130 33 C-130.67804688 33.56203125 -131.35609375 34.1240625 -132.0546875 34.703125 C-142.67321248 44.39191738 -150.50977923 59.57416072 -151.40625 73.84765625 C-151.85753903 89.02224984 -149.53161585 100.99739725 -139.18359375 112.79296875 C-123.33864962 128.80798383 -103.83462628 132.98694947 -82.0625 133.1875 C-72.63266838 133.18847921 -63.94212414 132.11144086 -55 129 C-55.50450684 128.76812988 -56.00901367 128.53625977 -56.52880859 128.29736328 C-58.81300077 127.24445645 -61.09400694 126.18481832 -63.375 125.125 C-64.56609375 124.57779297 -64.56609375 124.57779297 -65.78125 124.01953125 C-66.54179688 123.66503906 -67.30234375 123.31054688 -68.0859375 122.9453125 C-68.7876709 122.62062988 -69.4894043 122.29594727 -70.21240234 121.96142578 C-72 121 -72 121 -74 119 C-74.0625 117.0625 -74.0625 117.0625 -73 115 C-67.94281596 112.53339927 -62.80125891 110.9946727 -57.375 109.5625 C-50.86842076 107.80416331 -44.41579015 105.93998738 -37.9921875 103.89453125 C-35.05421466 103.01620778 -32.09683202 102.27656115 -29.11914062 101.54663086 C-24.7329439 100.41521445 -20.41388174 99.03295242 -16.09179688 97.6796875 C-12.28484555 96.52627393 -9.02818922 95.69808444 -5 96 C-3.70437204 100.34467448 -4.29972131 102.48758482 -6.28564453 106.50878906 C-6.81014191 107.58630432 -7.33463928 108.66381958 -7.87503052 109.77398682 C-8.45509857 110.92622742 -9.03516663 112.07846802 -9.6328125 113.265625 C-10.22831445 114.46642757 -10.82310191 115.66758471 -11.41720581 116.86907959 C-12.66401138 119.38201174 -13.92118809 121.8894111 -15.18554688 124.39355469 C-16.8047556 127.6032559 -18.39450291 130.826553 -19.97644234 134.05475235 C-21.19740651 136.53697689 -22.43505377 139.010587 -23.67776108 141.481987 C-24.55922997 143.24347812 -25.42536913 145.01261336 -26.29129028 146.78179932 C-26.83470062 147.84670593 -27.37811096 148.91161255 -27.93798828 150.00878906 C-28.40955353 150.95079163 -28.88111877 151.89279419 -29.36697388 152.86334229 C-31 155 -31 155 -33.69137573 155.81195068 C-34.83414474 155.9050351 -34.83414474 155.9050351 -36 156 C-37.97973439 152.37530978 -39.95869124 148.75019562 -41.9375 145.125 C-42.78344727 143.57619141 -42.78344727 143.57619141 -43.64648438 141.99609375 C-44.18466797 141.00996094 -44.72285156 140.02382813 -45.27734375 139.0078125 C-45.77484131 138.09660645 -46.27233887 137.18540039 -46.78491211 136.24658203 C-47.54443557 134.84229533 -48.28601162 133.42797676 -49 132 C-50.95878779 132.28859883 -52.91700441 132.58107457 -54.875 132.875 C-55.96554687 133.03742188 -57.05609375 133.19984375 -58.1796875 133.3671875 C-60.20577903 133.70279775 -62.23159792 134.05216329 -64.23510742 134.50341797 C-86.09450922 139.40214226 -109.8284787 136.78177127 -129 125 C-141.79777639 116.08231378 -150.82812011 104.36518734 -154.375 88.9375 C-157.15390659 71.20406518 -151.9511375 56.28317894 -141.828125 41.91796875 C-120.1150136 14.39159525 -86.51541309 3.76872611 -53 -1 C-52.071875 -1.1340625 -51.14375 -1.268125 -50.1875 -1.40625 C-33.58364975 -3.32207888 -16.51116911 -2.19750822 0 0 Z " fill="#3680FD" transform="translate(1448,219)"/>
<path d="M0 0 C1.46808105 0.19335938 1.46808105 0.19335938 2.96582031 0.390625 C17.73821727 2.39807246 31.80720568 5.46300102 46 10 C47.46034668 10.45681152 47.46034668 10.45681152 48.95019531 10.92285156 C62.37808262 15.13863349 75.28386993 19.96304936 88 26 C87.67 26.66 87.34 27.32 87 28 C86.28569824 27.72325439 85.57139648 27.44650879 84.83544922 27.16137695 C25.18612278 4.07333011 -40.49688903 -11.9989818 -102.02929688 15.10595703 C-112.42847017 19.82371875 -121.27450426 25.72479101 -130 33 C-130.67804688 33.56203125 -131.35609375 34.1240625 -132.0546875 34.703125 C-142.67321248 44.39191738 -150.50977923 59.57416072 -151.40625 73.84765625 C-151.85753903 89.02224984 -149.53161585 100.99739725 -139.18359375 112.79296875 C-123.33750984 128.80913585 -103.83530461 132.98471076 -82.0625 133.1875 C-74.86137886 133.19497082 -68.06116221 132.46969417 -61 131 C-58.63873261 130.54607029 -56.40101955 130.20878431 -54 130 C-53.34 130.66 -52.68 131.32 -52 132 C-76.71613242 138.24877389 -102.80178297 139.35192455 -125.77734375 126.98046875 C-139.76622231 118.38366702 -148.93049109 107.12367946 -153.81640625 91.3671875 C-157.55042328 75.12551903 -153.50346819 60.69130605 -145.11914062 46.76025391 C-129.46458498 22.13779619 -102.15942332 9.6034217 -74.75390625 2.8046875 C-67.54399118 1.25916981 -60.29909664 0.03854882 -53 -1 C-52.071875 -1.1340625 -51.14375 -1.268125 -50.1875 -1.40625 C-33.58364975 -3.32207888 -16.51116911 -2.19750822 0 0 Z " fill="#4F90FB" transform="translate(1448,219)"/>
<path d="M0 0 C0.8763208 -0.00418945 1.7526416 -0.00837891 2.65551758 -0.01269531 C3.59419678 -0.00334961 4.53287598 0.00599609 5.5 0.015625 C6.48186279 0.02239258 7.46372559 0.02916016 8.4753418 0.03613281 C18.23544916 0.17111219 27.82879382 0.97846266 37.5 2.265625 C38.4787207 2.39453125 39.45744141 2.5234375 40.46582031 2.65625 C55.23821727 4.66369746 69.30720568 7.72862602 83.5 12.265625 C84.47356445 12.57016602 85.44712891 12.87470703 86.45019531 13.18847656 C99.87808262 17.40425849 112.78386993 22.22867436 125.5 28.265625 C125.17 28.925625 124.84 29.585625 124.5 30.265625 C123.78569824 29.98887939 123.07139648 29.71213379 122.33544922 29.42700195 C78.57050212 12.48721052 38.40727792 3.84408891 -8.5 2.265625 C-5.53756017 0.57063812 -3.40314872 0.00992585 0 0 Z " fill="#4B8BFB" transform="translate(1410.5,216.734375)"/>
<path d="M0 0 C0.33 0 0.66 0 1 0 C1.07476563 0.98097656 1.14953125 1.96195312 1.2265625 2.97265625 C2.60276157 18.06560115 6.83762648 29.47940949 17 41 C17.33 41.66 17.66 42.32 18 43 C13.20917589 42.2886986 11.58376635 39.53730913 8.8125 35.81640625 C2.99249838 26.77282615 -0.18512999 18.42824191 -0.0625 7.75 C-0.05798828 7.00492187 -0.05347656 6.25984375 -0.04882812 5.4921875 C-0.03709246 3.6614236 -0.0191585 1.83070127 0 0 Z " fill="#448CFD" transform="translate(1294,293)"/>
<path d="M0 0 C-2.07556055 2.07556055 -3.11279643 2.53422395 -5.82421875 3.4453125 C-6.59886475 3.71384033 -7.37351074 3.98236816 -8.17163086 4.2590332 C-9.00186768 4.54480225 -9.83210449 4.83057129 -10.6875 5.125 C-19.64217952 8.30054503 -27.74874843 12.33251699 -36 17 C-37.32769157 17.67783281 -38.65820522 18.35053176 -40 19 C-40.33 18.34 -40.66 17.68 -41 17 C-32.64885027 11.45822322 -24.25585874 7.01240533 -14.875 3.4375 C-13.97499268 3.09138672 -13.07498535 2.74527344 -12.14770508 2.38867188 C-7.88792124 0.8196789 -4.58612285 -0.18548678 0 0 Z " fill="#5191FC" transform="translate(1367,225)"/>
<path d="M0 0 C5.57137089 1.12427244 11.12483403 2.32617334 16.67480469 3.55126953 C16.01480469 4.21126953 15.35480469 4.87126953 14.67480469 5.55126953 C8.14671765 5.16726441 1.74952042 3.60011776 -4.64160156 2.27001953 C-8.20077857 1.57554597 -11.73257481 1.03213508 -15.32519531 0.55126953 C-10.40423857 -2.72936829 -5.63188541 -1.08687583 0 0 Z " fill="#5997FC" transform="translate(1464.3251953125,221.44873046875)"/>
<path d="M0 0 C2 2 2 2 2.04345703 4.24658203 C1.94919434 5.15778809 1.85493164 6.06899414 1.7578125 7.0078125 C1.66113281 7.99394531 1.56445312 8.98007812 1.46484375 9.99609375 C1.35269531 11.02863281 1.24054688 12.06117188 1.125 13.125 C1.02058594 14.16527344 0.91617187 15.20554687 0.80859375 16.27734375 C0.54869472 18.85270688 0.27876681 21.42662204 0 24 C-0.99 24 -1.98 24 -3 24 C-3.40735653 15.49077472 -2.43092956 8.1609778 0 0 Z " fill="#7EB0FC" transform="translate(1296,279)"/>
<path d="M0 0 C0 0.33 0 0.66 0 1 C-2.78956182 1.55552302 -5.58060486 2.09487359 -8.375 2.625 C-9.1690625 2.78484375 -9.963125 2.9446875 -10.78125 3.109375 C-12.83984452 3.49318076 -14.92030405 3.75508571 -17 4 C-17.66 3.34 -18.32 2.68 -19 2 C-6.51480638 -1.62870159 -6.51480638 -1.62870159 0 0 Z " fill="#68A0FD" transform="translate(1384,222)"/>
<path d="M0 0 C1.90845703 0.15275391 1.90845703 0.15275391 3.85546875 0.30859375 C4.83128906 0.39238281 5.80710937 0.47617187 6.8125 0.5625 C6.8125 0.8925 6.8125 1.2225 6.8125 1.5625 C4.73064549 1.78512606 2.64689574 1.99007926 0.5625 2.1875 C-0.59765625 2.30351562 -1.7578125 2.41953125 -2.953125 2.5390625 C-6.12622091 2.56205595 -7.57067244 2.25955154 -10.1875 0.5625 C-6.51762779 -0.66079074 -3.84782178 -0.31771006 0 0 Z " fill="#76A6FB" transform="translate(1350.1875,351.4375)"/>
<path d="M0 0 C9.59453303 0.59453303 9.59453303 0.59453303 13 4 C3.40546697 3.40546697 3.40546697 3.40546697 0 0 Z " fill="#438AFB" transform="translate(1479,226)"/>
<path d="M0 0 C1.36511719 0.43119141 1.36511719 0.43119141 2.7578125 0.87109375 C3.45648437 1.09925781 4.15515625 1.32742188 4.875 1.5625 C4.875 1.8925 4.875 2.2225 4.875 2.5625 C3.24919034 2.44851335 1.62432843 2.32094341 0 2.1875 C-0.90492187 2.11789062 -1.80984375 2.04828125 -2.7421875 1.9765625 C-5.125 1.5625 -5.125 1.5625 -7.125 -0.4375 C-4.30685434 -1.84657283 -2.95222796 -0.94622691 0 0 Z " fill="#5C95FC" transform="translate(1338.125,349.4375)"/>
<path d="M0 0 C4.12751449 0.60698743 7.3321148 2.03810791 11 4 C8 5 8 5 4.375 3.6875 C1 2 1 2 0 0 Z " fill="#3C81FB" transform="translate(1322,344)"/>
<path d="M0 0 C1.99097846 2.98646769 2.94124926 5.59687262 4 9 C3.01 9.495 3.01 9.495 2 10 C1.46987262 8.71211992 0.9511671 7.41953322 0.4375 6.125 C0.14746094 5.40570313 -0.14257812 4.68640625 -0.44140625 3.9453125 C-1 2 -1 2 0 0 Z " fill="#5498FD" transform="translate(1297,312)"/>
</svg>
