<svg width="277" height="275" viewBox="0 0 277 275" fill="none" xmlns="http://www.w3.org/2000/svg">
<path d="M138.5 0C145.179 0 151.584 2.89731 156.306 8.05456C161.029 13.2118 163.682 20.2065 163.682 27.5C163.682 37.675 158.645 46.6125 151.091 51.2875V68.75H163.682C187.057 68.75 209.475 78.8906 226.004 96.941C242.532 114.991 251.818 139.473 251.818 165H264.409C267.748 165 270.951 166.449 273.312 169.027C275.673 171.606 277 175.103 277 178.75V220C277 223.647 275.673 227.144 273.312 229.723C270.951 232.301 267.748 233.75 264.409 233.75H251.818V247.5C251.818 254.793 249.165 261.788 244.443 266.945C239.72 272.103 233.315 275 226.636 275H50.3636C43.685 275 37.2799 272.103 32.5574 266.945C27.8349 261.788 25.1818 254.793 25.1818 247.5V233.75H12.5909C9.25159 233.75 6.04905 232.301 3.68779 229.723C1.32654 227.144 0 223.647 0 220V178.75C0 175.103 1.32654 171.606 3.68779 169.027C6.04905 166.449 9.25159 165 12.5909 165H25.1818C25.1818 139.473 34.4676 114.991 50.9964 96.941C67.5251 78.8906 89.943 68.75 113.318 68.75H125.909V51.2875C118.355 46.6125 113.318 37.675 113.318 27.5C113.318 20.2065 115.971 13.2118 120.694 8.05456C125.416 2.89731 131.821 0 138.5 0ZM81.8409 151.25C73.4926 151.25 65.4863 154.872 59.5831 161.318C53.68 167.765 50.3636 176.508 50.3636 185.625C50.3636 194.742 53.68 203.485 59.5831 209.932C65.4863 216.378 73.4926 220 81.8409 220C90.1892 220 98.1956 216.378 104.099 209.932C110.002 203.485 113.318 194.742 113.318 185.625C113.318 176.508 110.002 167.765 104.099 161.318C98.1956 154.872 90.1892 151.25 81.8409 151.25ZM195.159 151.25C186.811 151.25 178.804 154.872 172.901 161.318C166.998 167.765 163.682 176.508 163.682 185.625C163.682 194.742 166.998 203.485 172.901 209.932C178.804 216.378 186.811 220 195.159 220C203.507 220 211.514 216.378 217.417 209.932C223.32 203.485 226.636 194.742 226.636 185.625C226.636 176.508 223.32 167.765 217.417 161.318C211.514 154.872 203.507 151.25 195.159 151.25Z" fill="#0063E5"/>
</svg>
