<svg viewBox="80 8 316 334" fill="none" xmlns="http://www.w3.org/2000/svg">
<path d="M109.25 271C102.031 271 95.8537 268.427 90.7175 263.281C85.5812 258.135 83.0088 251.941 83 244.7V34.3C83 27.0675 85.5725 20.8782 90.7175 15.7322C95.8625 10.5862 102.04 8.00877 109.25 8H214.25L293 86.9V244.7C293 251.932 290.432 258.126 285.296 263.281C280.159 268.436 273.977 271.009 266.75 271H109.25ZM201.125 100.05H266.75L201.125 34.3V100.05Z" fill="#E8ECF3"/>
<path d="M200.5 8.5H214L252.5 46L292.5 86V101H200.5V8.5Z" fill="#D5DBE3"/>
<rect width="130" height="18" transform="translate(123 110)" fill="#D5DBE3"/>
<rect width="91" height="18" transform="translate(123 142)" fill="#D5DBE3"/>
<circle cx="292.5" cy="241.5" r="99.5" fill="#5784FC"/>
<path d="M293.358 202L293.363 240.045M293.363 240.099V281.399M252 240.099L287.825 204.276C289.277 202.824 291.246 202.008 293.3 202.008C295.354 202.008 297.323 202.824 298.775 204.276L334.6 240.099" stroke="white" stroke-width="16" stroke-linecap="round" stroke-linejoin="round"/>
</svg>
