<svg width="390" height="390" viewBox="0 0 390 390" fill="none" xmlns="http://www.w3.org/2000/svg">
<path d="M356.888 179.788H370.195V210.212H356.888V179.788ZM330.665 219.119H343.972V170.881H330.665V219.119ZM304.883 244.07H318.19V145.93H304.883V244.07ZM280.373 263.323H293.68V127.575H280.373V263.29V263.323ZM254.133 230.172H267.44V159.828H254.133V230.172ZM227.477 283.4H240.785V103.589H227.436V283.4H227.477ZM201.246 309.182H214.553V80.8184H201.246V309.182ZM175.463 273.926H188.771V116.073H175.463V273.927V273.926ZM148.791 229.099H162.098V162.563H148.791V229.099ZM123.009 213.238H136.316V176.704H123.009V213.298V213.238ZM97.2265 232.784H110.534V157.191H97.2265V232.808V232.784ZM71.8598 269.377H85.167V116.298H71.8605V269.403L71.8598 269.377ZM46.0779 245.99H59.3851V142.695H46.0779V246.016V245.99ZM19.8047 219.119H33.1119V170.881H19.8047V219.119Z" fill="#2F65FD"/>
</svg>
