<svg width="473" height="270" viewBox="0 0 473 270" fill="none" xmlns="http://www.w3.org/2000/svg">
<path d="M142.683 69.9376C135.925 63.1 117.862 45.991 96.5627 44.3742C90.8104 58.6456 90.1387 76.5385 93.2322 88.2457" stroke="#1A73E8" stroke-width="6" stroke-linecap="round" stroke-linejoin="round"/>
<path d="M159.052 69.5343C164.299 62.659 178.342 45.476 195.224 44.1944C200.041 58.8913 200.887 77.2034 198.635 89.1232" stroke="#1A73E8" stroke-width="6" stroke-linecap="round" stroke-linejoin="round"/>
<path d="M95.7142 47.8915C96.5359 43.7103 101.428 41.772 105.018 44.2056L139.158 67.3505C143.152 70.0579 142.547 76.0212 138.101 77.7829L96.1453 94.4044C91.6987 96.166 86.985 92.3096 87.8992 87.6579L95.7142 47.8915Z" fill="#1A73E8"/>
<path d="M183.324 46.8591C190.511 42.662 199.579 47.3767 199.997 55.5276L200.774 70.6372C201.209 79.1237 192.015 84.9233 184.401 80.9648L170.303 73.6353C162.689 69.6767 162.52 59.009 170.002 54.6392L183.324 46.8591Z" fill="#1A73E8"/>
<g filter="url(#filter0_i_1091_22)">
<path d="M188.441 156.735L152.243 167.508L177.413 231.705L220.824 232.478L188.441 156.735Z" fill="#4C8EE4"/>
</g>
<g filter="url(#filter1_d_1091_22)">
<path d="M124.199 80.9105C137.065 78.9538 152.886 80.5831 168.277 81.9599C178.69 82.8913 185.611 86.9401 189.995 92.2147C194.493 97.6276 197.535 105.82 197.241 116.942C196.816 133.022 181.199 156.548 131.334 158.329C116.387 158.863 109.923 155.878 107.255 153.792C104.976 152.01 103.127 149.059 102.42 142.796C101.673 136.174 102.47 128.009 103.96 118.319C105.211 110.185 107.216 99.6983 107.82 91.0523C108.571 88.0215 109.919 86.4156 111.636 85.1712C113.996 83.4596 117.974 81.8572 124.199 80.9105Z" stroke="#1A73E8" stroke-width="35" shape-rendering="crispEdges"/>
</g>
<g filter="url(#filter2_d_1091_22)">
<path d="M89.9962 64.1358L131.234 62.8053L103.316 233.461L59.4447 234.876L89.9962 64.1358Z" fill="url(#paint0_linear_1091_22)"/>
</g>
<g filter="url(#filter3_d_1091_22)">
<path d="M106.994 166.334L109.819 151.453L112.49 134.559L40.687 132.78L24.0002 164.277L106.994 166.334Z" fill="#1A73E8"/>
</g>
<g filter="url(#filter4_i_1091_22)">
<path d="M113.153 174.011L115.565 158.505L118.31 141.181L112.522 134.192L109.702 150.078L106.882 165.964L113.153 174.011Z" fill="#1A73E8"/>
</g>
<path d="M253.588 195.236C246.742 195.236 241.06 193.886 236.543 191.188C232.054 188.46 228.901 184.582 227.083 179.554C225.265 174.497 224.938 168.489 226.103 161.528C227.239 154.767 229.554 148.858 233.049 143.801C236.571 138.716 241.003 134.767 246.344 131.955C251.685 129.114 257.637 127.693 264.199 127.693C268.858 127.693 272.992 128.418 276.6 129.866C280.208 131.315 283.191 133.474 285.549 136.344C287.907 139.185 289.512 142.679 290.364 146.827C291.216 150.974 291.188 155.733 290.279 161.102L289.469 166.301H232.623L234.54 154.199H272.04C272.381 151.983 272.196 150.009 271.486 148.276C270.776 146.543 269.625 145.193 268.034 144.227C266.472 143.233 264.554 142.736 262.282 142.736C259.98 142.736 257.821 143.276 255.804 144.355C253.816 145.406 252.125 146.827 250.733 148.616C249.341 150.406 248.432 152.423 248.006 154.668L245.748 167.068C245.293 169.824 245.421 172.182 246.131 174.142C246.841 176.102 248.063 177.608 249.796 178.659C251.529 179.682 253.759 180.193 256.486 180.193C258.304 180.193 260.009 179.952 261.6 179.469C263.191 178.957 264.611 178.205 265.861 177.21C267.14 176.187 268.176 174.952 268.972 173.503L287.978 174.057C286.444 178.347 284.071 182.082 280.861 185.264C277.651 188.418 273.73 190.875 269.1 192.636C264.498 194.369 259.327 195.236 253.588 195.236ZM297.504 218.545L312.589 128.545H333.214L331.382 139.753H332.021C333.157 137.764 334.663 135.847 336.538 134C338.441 132.153 340.728 130.648 343.399 129.483C346.069 128.29 349.123 127.693 352.561 127.693C357.106 127.693 361.154 128.886 364.706 131.273C368.257 133.659 370.842 137.338 372.461 142.31C374.081 147.281 374.251 153.616 372.973 161.315C371.751 168.73 369.535 174.938 366.325 179.938C363.143 184.938 359.365 188.688 354.99 191.188C350.615 193.688 346.027 194.938 341.225 194.938C337.93 194.938 335.146 194.398 332.873 193.318C330.629 192.239 328.853 190.818 327.547 189.057C326.24 187.295 325.331 185.406 324.819 183.389H324.223L318.427 218.545H297.504ZM327.547 161.273C326.978 164.795 326.95 167.864 327.461 170.477C327.973 173.091 329.01 175.122 330.572 176.571C332.163 177.991 334.223 178.702 336.751 178.702C339.308 178.702 341.581 177.991 343.569 176.571C345.586 175.122 347.277 173.091 348.64 170.477C350.004 167.864 350.998 164.795 351.623 161.273C352.163 157.75 352.177 154.696 351.666 152.111C351.183 149.526 350.174 147.523 348.64 146.102C347.106 144.682 345.047 143.972 342.461 143.972C339.933 143.972 337.632 144.668 335.558 146.06C333.512 147.452 331.808 149.44 330.444 152.026C329.081 154.611 328.115 157.693 327.547 161.273ZM384.459 194L395.368 128.545H416.206L405.297 194H384.459ZM407.257 120.875C404.303 120.875 401.902 119.895 400.056 117.935C398.209 115.974 397.485 113.631 397.882 110.903C398.28 108.148 399.672 105.804 402.059 103.872C404.445 101.94 407.101 100.974 410.027 100.974C412.982 100.974 415.354 101.94 417.144 103.872C418.962 105.804 419.672 108.148 419.275 110.903C418.934 113.631 417.57 115.974 415.184 117.935C412.826 119.895 410.184 120.875 407.257 120.875ZM472.416 128.545L469.816 143.886H428.524L431.123 128.545H472.416ZM442.331 112.864H463.169L453.112 173.418C452.913 174.696 452.941 175.733 453.197 176.528C453.481 177.295 453.993 177.849 454.731 178.19C455.498 178.503 456.436 178.659 457.544 178.659C458.311 178.659 459.163 178.574 460.1 178.403C461.038 178.233 461.748 178.105 462.231 178.02L462.913 193.062C461.805 193.375 460.314 193.73 458.439 194.128C456.592 194.554 454.433 194.824 451.961 194.938C446.961 195.136 442.828 194.554 439.561 193.19C436.322 191.798 434.035 189.639 432.7 186.713C431.393 183.787 431.137 180.122 431.933 175.719L442.331 112.864Z" fill="#1A73E8"/>
<defs>
<filter id="filter0_i_1091_22" x="152.242" y="156.734" width="68.582" height="79.7422" filterUnits="userSpaceOnUse" color-interpolation-filters="sRGB">
<feFlood flood-opacity="0" result="BackgroundImageFix"/>
<feBlend mode="normal" in="SourceGraphic" in2="BackgroundImageFix" result="shape"/>
<feColorMatrix in="SourceAlpha" type="matrix" values="0 0 0 0 0 0 0 0 0 0 0 0 0 0 0 0 0 0 127 0" result="hardAlpha"/>
<feOffset dy="4"/>
<feGaussianBlur stdDeviation="2"/>
<feComposite in2="hardAlpha" operator="arithmetic" k2="-1" k3="1"/>
<feColorMatrix type="matrix" values="0 0 0 0 0 0 0 0 0 0 0 0 0 0 0 0 0 0 0.25 0"/>
<feBlend mode="normal" in2="shape" result="effect1_innerShadow_1091_22"/>
</filter>
<filter id="filter1_d_1091_22" x="80.6367" y="62.5156" width="138.125" height="121.375" filterUnits="userSpaceOnUse" color-interpolation-filters="sRGB">
<feFlood flood-opacity="0" result="BackgroundImageFix"/>
<feColorMatrix in="SourceAlpha" type="matrix" values="0 0 0 0 0 0 0 0 0 0 0 0 0 0 0 0 0 0 127 0" result="hardAlpha"/>
<feOffset dy="4"/>
<feGaussianBlur stdDeviation="2"/>
<feComposite in2="hardAlpha" operator="out"/>
<feColorMatrix type="matrix" values="0 0 0 0 0 0 0 0 0 0 0 0 0 0 0 0 0 0 0.25 0"/>
<feBlend mode="normal" in2="BackgroundImageFix" result="effect1_dropShadow_1091_22"/>
<feBlend mode="normal" in="SourceGraphic" in2="effect1_dropShadow_1091_22" result="shape"/>
</filter>
<filter id="filter2_d_1091_22" x="55.4453" y="62.8047" width="79.7891" height="180.07" filterUnits="userSpaceOnUse" color-interpolation-filters="sRGB">
<feFlood flood-opacity="0" result="BackgroundImageFix"/>
<feColorMatrix in="SourceAlpha" type="matrix" values="0 0 0 0 0 0 0 0 0 0 0 0 0 0 0 0 0 0 127 0" result="hardAlpha"/>
<feOffset dy="4"/>
<feGaussianBlur stdDeviation="2"/>
<feComposite in2="hardAlpha" operator="out"/>
<feColorMatrix type="matrix" values="0 0 0 0 0 0 0 0 0 0 0 0 0 0 0 0 0 0 0.25 0"/>
<feBlend mode="normal" in2="BackgroundImageFix" result="effect1_dropShadow_1091_22"/>
<feBlend mode="normal" in="SourceGraphic" in2="effect1_dropShadow_1091_22" result="shape"/>
</filter>
<filter id="filter3_d_1091_22" x="20" y="132.781" width="96.4922" height="41.5508" filterUnits="userSpaceOnUse" color-interpolation-filters="sRGB">
<feFlood flood-opacity="0" result="BackgroundImageFix"/>
<feColorMatrix in="SourceAlpha" type="matrix" values="0 0 0 0 0 0 0 0 0 0 0 0 0 0 0 0 0 0 127 0" result="hardAlpha"/>
<feOffset dy="4"/>
<feGaussianBlur stdDeviation="2"/>
<feComposite in2="hardAlpha" operator="out"/>
<feColorMatrix type="matrix" values="0 0 0 0 0 0 0 0 0 0 0 0 0 0 0 0 0 0 0.25 0"/>
<feBlend mode="normal" in2="BackgroundImageFix" result="effect1_dropShadow_1091_22"/>
<feBlend mode="normal" in="SourceGraphic" in2="effect1_dropShadow_1091_22" result="shape"/>
</filter>
<filter id="filter4_i_1091_22" x="106.883" y="134.191" width="11.4258" height="43.8203" filterUnits="userSpaceOnUse" color-interpolation-filters="sRGB">
<feFlood flood-opacity="0" result="BackgroundImageFix"/>
<feBlend mode="normal" in="SourceGraphic" in2="BackgroundImageFix" result="shape"/>
<feColorMatrix in="SourceAlpha" type="matrix" values="0 0 0 0 0 0 0 0 0 0 0 0 0 0 0 0 0 0 127 0" result="hardAlpha"/>
<feOffset dy="4"/>
<feGaussianBlur stdDeviation="2"/>
<feComposite in2="hardAlpha" operator="arithmetic" k2="-1" k3="1"/>
<feColorMatrix type="matrix" values="0 0 0 0 0 0 0 0 0 0 0 0 0 0 0 0 0 0 0.25 0"/>
<feBlend mode="normal" in2="shape" result="effect1_innerShadow_1091_22"/>
</filter>
<linearGradient id="paint0_linear_1091_22" x1="111.343" y1="59.5714" x2="82.2393" y2="238.582" gradientUnits="userSpaceOnUse">
<stop stop-color="#004EA0"/>
<stop offset="1" stop-color="#010848"/>
</linearGradient>
</defs>
</svg>
